<svg xmlns="http://www.w3.org/2000/svg" xmlns:xlink="http://www.w3.org/1999/xlink" viewBox="0 0 744.71 352.86"><defs><style>.cls-1{fill:#83c946;}.cls-1,.cls-2,.cls-3,.cls-4,.cls-5,.cls-6,.cls-7,.cls-8{fill-rule:evenodd;}.cls-2{fill:#1aa7be;}.cls-10,.cls-3{fill:#159cd5;}.cls-4{fill:#3dcb69;}.cls-5{fill:#23b79e;}.cls-6{fill:#28c187;}.cls-7{fill:#d6c51c;}.cls-8,.cls-9{fill:gray;}.cls-11{fill:url(#linear-gradient);}.cls-12{fill:url(#linear-gradient-7);}</style><linearGradient id="linear-gradient" x1="298.48" y1="45.95" x2="744.58" y2="45.95" gradientUnits="userSpaceOnUse"><stop offset="0.01" stop-color="#d6c516"/><stop offset="0.49" stop-color="#7f741b"/><stop offset="1" stop-color="#159cd5"/></linearGradient><linearGradient id="linear-gradient-7" x1="302.11" y1="174.22" x2="744.58" y2="174.22" xlink:href="#linear-gradient"/></defs><g id="Layer_2" data-name="Layer 2"><g id="Layer_1-2" data-name="Layer 1"><path class="cls-1" d="M224.35,130.3V155l6,6.33c.21-5.68,5.27-10.07,9.29-11.45,4.35-1.5,9.28.49,11.92,3.75v-8.41C245.38,138.29,234.86,133.61,224.35,130.3Z"/><path class="cls-1" d="M237.9,162.29c2.59,2.8,7.81,2.55,10,.36,5.4-5.4-.79-12.49-8-10.08-4.87,1.62-8.3,6.46-5.49,12.13s9.22,6.54,15,4.2a11.94,11.94,0,0,0,2.13-1.12V163.3C248.38,166.83,241.51,168.27,237.9,162.29Z"/><path class="cls-1" d="M242,173.76l9.48,10.07V172.22l-.3.1A20.73,20.73,0,0,1,242,173.76Z"/><path class="cls-1" d="M224.35,89.08a64.87,64.87,0,0,1,17.1-8.37,51.28,51.28,0,0,0,10.07-8.59V61.06a9.27,9.27,0,0,1-5.32,2.68c-5.32.67-14.64-2.42-14-11.72.65-9.71,11-11.44,13.73-11.61a12.57,12.57,0,0,1,5.6.46V2.92H224.35Z"/><path class="cls-1" d="M224.35,99.59v23.85c9.9,3.68,20,8.55,27.17,14.77V122a13.71,13.71,0,0,1,0-12.51V89l-1.14.07C240.18,89.71,231.7,93.8,224.35,99.59Z"/><path class="cls-1" d="M245.9,44c-5.79.43-10.7,3.76-10.53,9.6s5.13,8.43,9.87,7.79a7.14,7.14,0,0,0,6.28-5.29V53.81a5.7,5.7,0,0,0-4.09-4.05c-2.78-.92-7.21,1-8.11,4.38.36-6.7,7.24-8.17,11.35-6.16a6.27,6.27,0,0,1,.85.48V45A11.34,11.34,0,0,0,245.9,44Z"/><polygon class="cls-1" points="251.52 79.67 251.52 79.44 251.3 79.67 251.52 79.67"/><path class="cls-2" d="M82,160.11a10,10,0,0,0-4.08-6.57v19.29A14.58,14.58,0,0,0,82,160.11Z"/><path class="cls-2" d="M97.49,126.8a104.53,104.53,0,0,1-3.12-19.32C89.8,99.6,83.94,91,77.93,86.51v38A49.59,49.59,0,0,1,97.49,126.8Z"/><path class="cls-2" d="M77.93,132.78v15a16.45,16.45,0,0,1,9.9,11.56c1.83,8.29-2.75,16.24-9.9,20.87v4.13l27.18-28.88V139.91c-8.43-4.44-17.06-7-25.52-7.15C79,132.75,78.48,132.76,77.93,132.78Z"/><path class="cls-2" d="M77.93,80c7,3.64,13,9.86,17,14.75a27.77,27.77,0,0,1,10.2-17.1V2.92H77.93Z"/><path class="cls-2" d="M105.11,123.28V83.61A22.77,22.77,0,0,0,101.58,91C99.29,99.33,102.14,112.89,105.11,123.28Z"/><path class="cls-3" d="M68.5,171.26V151.65a8.9,8.9,0,0,0-2.11.86C56.79,158.13,60.37,168.75,68.5,171.26Z"/><path class="cls-3" d="M42.38,162.86v59.26L68.5,194.36V184a23,23,0,0,1-3.81.38C50.37,184.64,43.28,174.38,42.38,162.86Z"/><path class="cls-3" d="M42.38,157.69A31.66,31.66,0,0,1,49,140.25,43.22,43.22,0,0,1,68.5,126.53V105.84a11.63,11.63,0,0,1-10.62,1.73c-10.4-3-9.84-13.83-9.37-16.66.57-7.67,8.2-12.31,13.76-13.52A19.93,19.93,0,0,1,68.5,77V2.92H42.38Z"/><path class="cls-3" d="M63,81.74c-4.28.6-9.67,4.07-10.58,10s1.55,11.73,8,13a8.75,8.75,0,0,0,8.15-2.21V90a6.16,6.16,0,0,0-9.44,1.66c-1.67,2.59-.62,7.53,2.84,9.25-7.21-2-7.18-9.27-4-13,2.91-3.38,7.19-3.27,10.61-1.29V82A15.34,15.34,0,0,0,63,81.74Z"/><path class="cls-3" d="M67.94,177.69l.56-.1v-5.14c-9.23-.53-16.37-10.61-8.61-20.59a13.86,13.86,0,0,1,8.61-5.18V134.61C44.41,143.57,42.61,181.87,67.94,177.69Z"/><path class="cls-4" d="M199.36,128.4l15.56,16.54V127.65c-4.78-1.21-9.26-2.17-13-3Q200.63,126.55,199.36,128.4Z"/><path class="cls-4" d="M214.92,120.26V108.44c-2.81,3-5.46,6.27-8,9.52C209.43,118.63,212.12,119.39,214.92,120.26Z"/><path class="cls-4" d="M187.74,78.58c9.39-6,21.68-15.22,27.18-24.51V36.32a15.47,15.47,0,0,0-4.33-3.55,9.61,9.61,0,0,0-10.83,1c-3.37,3-4.72,7.38-1.66,10.92s7.47,2.8,10.07.16c3.86-3.9.85-10-4.54-8.22a5.19,5.19,0,0,0-2.79,6.54c-3.18-4.32.34-8.48,3.9-9.17,6.48-1.26,9.5,7.65,5.23,11.87-2.94,2.93-10.29,5.41-14.63-.65-4.52-6.32,1-12.26,2.61-13.67,4-4.12,10.57-3.38,14.32-1.61a16.68,16.68,0,0,1,2.65,1.57V2.92H187.74Z"/><path class="cls-4" d="M187.74,89v27l3.75,4a171.11,171.11,0,0,1,23.43-24V62.84C207.81,73.14,196.36,83,187.74,89Z"/><path class="cls-5" d="M123.45,35.65a12.89,12.89,0,0,0-8.91,8v7.88a9.63,9.63,0,0,0,8.7,7.22c6.49.6,10-4.18,9.92-9.14-.14-7.36-9.18-10.52-12.58-3.77-1.38,2.73.18,7.55,3.8,8.92-7.39-1.25-8.11-8.53-5.35-12.5,5-7.21,16.81-1.37,16.89,6.67.05,5.56-4.6,14.76-14.83,12.9a12.86,12.86,0,0,1-6.55-3.13V73.41a16.85,16.85,0,0,1,7.86.64c19.12,6.24,8.63,34-6.56,25.69a11.61,11.61,0,0,1-1.3-.83v35.5q3.19,1.82,6.59,4l20.58-21.87V40.29C136,36.28,129.85,34.11,123.45,35.65Z"/><path class="cls-5" d="M121.7,77.61a11.28,11.28,0,0,0-7.16-.69v7.25c4.57-3.74,13.49-1.38,12.75,5-.44,3.7-4.67,7.67-9.71,4.83,2.87.94,6.31-1.17,6.92-3.46,1.5-5.64-5.51-8.16-9.44-3.87-.18.21-.36.42-.52.64v8.18a8.56,8.56,0,0,0,1.63,1.43C127,104.2,136.48,84.14,121.7,77.61Z"/><path class="cls-5" d="M114.54,36.06a20.69,20.69,0,0,1,7.74-4.67c6.65-2.15,13.28-.7,19.43,2.53v-31H114.54Z"/><path class="cls-6" d="M151.14,48.93v57.62L165,91.86,168,95.13c-.18-7.75-.61-15.73-1.34-23.86C163.59,65.93,158.09,56.72,151.14,48.93Z"/><path class="cls-6" d="M165.29,55.46c-1-16.16-15.22-34.25-10.06-45.82a13,13,0,0,1,8.12-6.72H151.14V40.41A103.35,103.35,0,0,1,165.29,55.46Z"/><path class="cls-6" d="M167.92,20.21c-6.13-.47-10-9.13-4.22-12.31,3.17-1.75,8.68-.86,9.26,4.43-.86-2.63-4.45-4-6.61-3.14-5.32,2.05-3.38,8.61,2.22,9.1,3.78.33,7.61-1.92,7.49-6.55s-4.15-7.08-8.75-7.19a9.36,9.36,0,0,0-8.89,6.15c-4.55,13.44,13.69,22.06,19.89,66.36V13.73C177,18.58,171.43,20.48,167.92,20.21Z"/><path class="cls-6" d="M178.31,9.23V2.92h-5.63A8.63,8.63,0,0,1,178.31,9.23Z"/><path class="cls-7" d="M279.35,119.25c9-16.61-2.72-27.23-18.4-29.74V103.1a16.82,16.82,0,0,1,7,.06c8.79,2.13,12.17,15.63,3,18.9a10.11,10.11,0,0,1-10-2v4.85a18.21,18.21,0,0,0,3.9,1.18A14,14,0,0,0,279.35,119.25Z"/><path class="cls-7" d="M267.43,119.56c8.26-1.73,7.11-11.74-.91-13.78a11.8,11.8,0,0,0-5.57-.06v11.76A8,8,0,0,0,267.43,119.56Z"/><path class="cls-7" d="M261,48.71q.27.47.51.93c2.84,5.76,2,11.54-.51,16.87v14.3c12.17,3.12,23.48,12.25,26.13,23.33V2.92H261Z"/><path class="cls-7" d="M264.37,130.23a22,22,0,0,1-3.42-.93v23.21a19.69,19.69,0,0,1,.45,3.61,18.37,18.37,0,0,1-.45,4.47v6.16h26.13V113.91a24.51,24.51,0,0,1-3.36,7.62C280.43,126.58,272.73,132.45,264.37,130.23Z"/><path class="cls-8" d="M286.84,194.41V175.84H262.5v33.72L164.73,105.67,0,280.71H62.42v72.15l5.71-4.65a153.74,153.74,0,0,1,193.2,0l5.71,4.65V280.71h62.42l-42.62-45.28Zm-44.22,62.76v51.09a180,180,0,0,0-155.78,0V257.17H55.12L164.73,140.7,274.34,257.17Z"/><rect class="cls-9" x="142.77" y="208.1" width="20.45" height="19.71"/><rect class="cls-9" x="142.77" y="230.72" width="20.45" height="19.71"/><rect class="cls-9" x="166.24" y="208.1" width="20.45" height="19.71"/><rect class="cls-9" x="166.24" y="230.72" width="20.45" height="19.71"/><path class="cls-10" d="M298.48,88.59V3.38h22.34q21.76,0,30.64,1.83A45.25,45.25,0,0,1,367,11.35a37.42,37.42,0,0,1,13.4,14.49A43.58,43.58,0,0,1,385,46a43,43,0,0,1-4.55,20.11A37.9,37.9,0,0,1,367,80.61a45.57,45.57,0,0,1-15.2,6.15q-8.52,1.83-26.54,1.83H298.48ZM315,76.07H329q11.48,0,17.21-1.28a27.08,27.08,0,0,0,10-4.31,26.15,26.15,0,0,0,8.66-10.27,33.29,33.29,0,0,0,2.89-14.29,33.27,33.27,0,0,0-2.89-14.28,26.18,26.18,0,0,0-8.66-10.28,28,28,0,0,0-10.33-4.31q-6-1.28-18.82-1.28H315Z"/><path class="cls-10" d="M404.23,88.59V3.38h16.56V88.59Z"/><path class="cls-10" d="M476.93,91.9,431.51,3.38h17.18l22.82,45.4c1.34,2.64,2.46,5.07,3.34,7.3a52.23,52.23,0,0,1,2.08,6.37,65.69,65.69,0,0,1,2.3-6.63q1.39-3.43,3.27-7l22.75-45.4h17.12Z"/><path class="cls-10" d="M532.94,88.59V3.38H549.5V88.59Z"/><path class="cls-10" d="M573.29,88.59V0L638,52.09q2.64,2.22,5.35,4.72t5.71,5.64V3.38h15.3V91.9l-66-53c-1.76-1.44-3.47-3-5.11-4.54s-3.22-3.26-4.7-5V88.59Z"/><path class="cls-10" d="M687.74,88.59V3.38h56.84V15.14H704.3V36.49h40.28V48.66H704.3V76.19h40.28v12.4Z"/><path class="cls-11" d="M298.48,88.59V3.38h22.34q21.76,0,30.64,1.83A45.25,45.25,0,0,1,367,11.35a37.42,37.42,0,0,1,13.4,14.49A43.58,43.58,0,0,1,385,46a43,43,0,0,1-4.55,20.11A37.9,37.9,0,0,1,367,80.61a45.57,45.57,0,0,1-15.2,6.15q-8.52,1.83-26.54,1.83H298.48ZM315,76.07H329q11.48,0,17.21-1.28a27.08,27.08,0,0,0,10-4.31,26.15,26.15,0,0,0,8.66-10.27,33.29,33.29,0,0,0,2.89-14.29,33.27,33.27,0,0,0-2.89-14.28,26.18,26.18,0,0,0-8.66-10.28,28,28,0,0,0-10.33-4.31q-6-1.28-18.82-1.28H315Z"/><path class="cls-11" d="M404.23,88.59V3.38h16.56V88.59Z"/><path class="cls-11" d="M476.93,91.9,431.51,3.38h17.18l22.82,45.4c1.34,2.64,2.46,5.07,3.34,7.3a52.23,52.23,0,0,1,2.08,6.37,65.69,65.69,0,0,1,2.3-6.63q1.39-3.43,3.27-7l22.75-45.4h17.12Z"/><path class="cls-11" d="M532.94,88.59V3.38H549.5V88.59Z"/><path class="cls-11" d="M573.29,88.59V0L638,52.09q2.64,2.22,5.35,4.72t5.71,5.64V3.38h15.3V91.9l-66-53c-1.76-1.44-3.47-3-5.11-4.54s-3.22-3.26-4.7-5V88.59Z"/><path class="cls-11" d="M687.74,88.59V3.38h56.84V15.14H704.3V36.49h40.28V48.66H704.3V76.19h40.28v12.4Z"/><path class="cls-10" d="M302.11,216.85V128.27l56.16,52.09c1.53,1.47,3.08,3,4.65,4.71s3.22,3.55,4.95,5.65V131.64h13.29v88.53l-57.31-53q-2.3-2.16-4.44-4.54t-4.08-5v59.25Z"/><path class="cls-10" d="M492.09,174.42a42.4,42.4,0,0,1-3.53,17.18A43.53,43.53,0,0,1,478.26,206a48.56,48.56,0,0,1-33.39,13.09,49.36,49.36,0,0,1-18.21-3.4A47.22,47.22,0,0,1,411.35,206a43.38,43.38,0,0,1-10.26-14.38,44.14,44.14,0,0,1,0-34.45,43.83,43.83,0,0,1,10.26-14.5A47.25,47.25,0,0,1,426.69,133,51.16,51.16,0,0,1,463,133a47.12,47.12,0,0,1,15.31,9.66,44.72,44.72,0,0,1,10.3,14.58A42.45,42.45,0,0,1,492.09,174.42Zm-15,0a31.41,31.41,0,0,0-2.45-12.28,32,32,0,0,0-7-10.36,31.4,31.4,0,0,0-10.36-6.9,33.29,33.29,0,0,0-24.82,0A31.59,31.59,0,0,0,422,151.78a30.74,30.74,0,0,0-7,10.3,31.94,31.94,0,0,0-2.42,12.34A31.24,31.24,0,0,0,422,197a31.82,31.82,0,0,0,10.45,6.92,32.46,32.46,0,0,0,12.44,2.39,32,32,0,0,0,12.29-2.39A32.69,32.69,0,0,0,467.64,197a32,32,0,0,0,7-10.33A31.06,31.06,0,0,0,477.12,174.42Z"/><path class="cls-10" d="M599.22,174.42a42.4,42.4,0,0,1-3.53,17.18A43.53,43.53,0,0,1,585.39,206,48.56,48.56,0,0,1,552,219.12a49.36,49.36,0,0,1-18.21-3.4A47.22,47.22,0,0,1,518.48,206a43.24,43.24,0,0,1-10.26-14.38,44.14,44.14,0,0,1,0-34.45,43.69,43.69,0,0,1,10.26-14.5A47.25,47.25,0,0,1,533.82,133a51.16,51.16,0,0,1,36.26,0,47.12,47.12,0,0,1,15.31,9.66,44.72,44.72,0,0,1,10.3,14.58A42.45,42.45,0,0,1,599.22,174.42Zm-15,0a31.41,31.41,0,0,0-2.45-12.28,31.88,31.88,0,0,0-7-10.36,31.4,31.4,0,0,0-10.36-6.9,33.29,33.29,0,0,0-24.82,0,31.69,31.69,0,0,0-10.48,6.92,30.74,30.74,0,0,0-7,10.3,31.94,31.94,0,0,0-2.42,12.34A31.24,31.24,0,0,0,529.11,197a31.93,31.93,0,0,0,10.45,6.92A32.46,32.46,0,0,0,552,206.26a32,32,0,0,0,12.29-2.39A32.69,32.69,0,0,0,574.77,197a31.86,31.86,0,0,0,7-10.33A31.06,31.06,0,0,0,584.25,174.42Z"/><path class="cls-10" d="M615.71,216.85V131.64h14.37v35.28l31.77-35.28h17.57l-35,37.9,39.2,47.31H665.05l-35-43.53v43.53Z"/><path class="cls-10" d="M687.33,199.8l11.48-5.12a15.2,15.2,0,0,0,6,8.7q4.35,3,11.11,3,6.39,0,10.17-3.44a11.81,11.81,0,0,0,3.78-9.19q0-7.51-12.93-13.39c-1.2-.58-2.13-1-2.77-1.28q-14.62-6.87-19.48-12.43a19.9,19.9,0,0,1-4.86-13.59q0-10.41,7.34-16.87t19.23-6.47q9.78,0,16.37,3.64a19.42,19.42,0,0,1,9.12,10.45l-11.24,5.58a18.39,18.39,0,0,0-5.82-5.87,14.07,14.07,0,0,0-7.28-1.87c-3.87,0-6.94,1-9.21,2.91a9.74,9.74,0,0,0-3.42,7.81q0,7.68,15,14.31l1.81.82q13.11,5.82,18,11.37a20.27,20.27,0,0,1,4.89,13.88q0,12.12-7.91,19.24t-21.38,7.13q-11.29,0-18.51-5A23.35,23.35,0,0,1,687.33,199.8Z"/><path class="cls-12" d="M302.11,216.85V128.27l56.16,52.09c1.53,1.47,3.08,3,4.65,4.71s3.22,3.55,4.95,5.65V131.64h13.29v88.53l-57.31-53q-2.3-2.16-4.44-4.54t-4.08-5v59.25Z"/><path class="cls-12" d="M492.09,174.42a42.4,42.4,0,0,1-3.53,17.18A43.53,43.53,0,0,1,478.26,206a48.56,48.56,0,0,1-33.39,13.09,49.36,49.36,0,0,1-18.21-3.4A47.22,47.22,0,0,1,411.35,206a43.38,43.38,0,0,1-10.26-14.38,44.14,44.14,0,0,1,0-34.45,43.83,43.83,0,0,1,10.26-14.5A47.25,47.25,0,0,1,426.69,133,51.16,51.16,0,0,1,463,133a47.12,47.12,0,0,1,15.31,9.66,44.72,44.72,0,0,1,10.3,14.58A42.45,42.45,0,0,1,492.09,174.42Zm-15,0a31.41,31.41,0,0,0-2.45-12.28,32,32,0,0,0-7-10.36,31.4,31.4,0,0,0-10.36-6.9,33.29,33.29,0,0,0-24.82,0A31.59,31.59,0,0,0,422,151.78a30.74,30.74,0,0,0-7,10.3,31.94,31.94,0,0,0-2.42,12.34A31.24,31.24,0,0,0,422,197a31.82,31.82,0,0,0,10.45,6.92,32.46,32.46,0,0,0,12.44,2.39,32,32,0,0,0,12.29-2.39A32.69,32.69,0,0,0,467.64,197a32,32,0,0,0,7-10.33A31.06,31.06,0,0,0,477.12,174.42Z"/><path class="cls-12" d="M599.22,174.42a42.4,42.4,0,0,1-3.53,17.18A43.53,43.53,0,0,1,585.39,206,48.56,48.56,0,0,1,552,219.12a49.36,49.36,0,0,1-18.21-3.4A47.22,47.22,0,0,1,518.48,206a43.24,43.24,0,0,1-10.26-14.38,44.14,44.14,0,0,1,0-34.45,43.69,43.69,0,0,1,10.26-14.5A47.25,47.25,0,0,1,533.82,133a51.16,51.16,0,0,1,36.26,0,47.12,47.12,0,0,1,15.31,9.66,44.72,44.72,0,0,1,10.3,14.58A42.45,42.45,0,0,1,599.22,174.42Zm-15,0a31.41,31.41,0,0,0-2.45-12.28,31.88,31.88,0,0,0-7-10.36,31.4,31.4,0,0,0-10.36-6.9,33.29,33.29,0,0,0-24.82,0,31.69,31.69,0,0,0-10.48,6.92,30.74,30.74,0,0,0-7,10.3,31.94,31.94,0,0,0-2.42,12.34A31.24,31.24,0,0,0,529.11,197a31.93,31.93,0,0,0,10.45,6.92A32.46,32.46,0,0,0,552,206.26a32,32,0,0,0,12.29-2.39A32.69,32.69,0,0,0,574.77,197a31.86,31.86,0,0,0,7-10.33A31.06,31.06,0,0,0,584.25,174.42Z"/><path class="cls-12" d="M615.71,216.85V131.64h14.37v35.28l31.77-35.28h17.57l-35,37.9,39.2,47.31H665.05l-35-43.53v43.53Z"/><path class="cls-12" d="M687.33,199.8l11.48-5.12a15.2,15.2,0,0,0,6,8.7q4.35,3,11.11,3,6.39,0,10.17-3.44a11.81,11.81,0,0,0,3.78-9.19q0-7.51-12.93-13.39c-1.2-.58-2.13-1-2.77-1.28q-14.62-6.87-19.48-12.43a19.9,19.9,0,0,1-4.86-13.59q0-10.41,7.34-16.87t19.23-6.47q9.78,0,16.37,3.64a19.42,19.42,0,0,1,9.12,10.45l-11.24,5.58a18.39,18.39,0,0,0-5.82-5.87,14.07,14.07,0,0,0-7.28-1.87c-3.87,0-6.94,1-9.21,2.91a9.74,9.74,0,0,0-3.42,7.81q0,7.68,15,14.31l1.81.82q13.11,5.82,18,11.37a20.27,20.27,0,0,1,4.89,13.88q0,12.12-7.91,19.24t-21.38,7.13q-11.29,0-18.51-5A23.35,23.35,0,0,1,687.33,199.8Z"/><path class="cls-9" d="M280.93,345.59a28,28,0,0,1-7.15-11.85,53.54,53.54,0,0,1-2.56-17.23,54.36,54.36,0,0,1,2.56-17.38,27.66,27.66,0,0,1,7.15-11.85,15.25,15.25,0,0,1,21.06,0,27.79,27.79,0,0,1,7.15,11.81,54.19,54.19,0,0,1,2.56,17.42,53.54,53.54,0,0,1-2.56,17.23A27.91,27.91,0,0,1,302,345.59a15.08,15.08,0,0,1-21,0Zm16.22-17.19q2.24-4.54,2.23-12a34.49,34.49,0,0,0-1-8.78,15.66,15.66,0,0,0-2.83-6,4.95,4.95,0,0,0-8.2,0,15.36,15.36,0,0,0-2.8,6,35.48,35.48,0,0,0-1,8.78q0,7.44,2.2,12c1.46,3,3.37,4.55,5.72,4.55S295.67,331.44,297.15,328.4Z"/><path class="cls-9" d="M312.8,284.45h12.37l3.58,40.79,3.68-29.92h12.82L349,325.24l3.57-40.79h12.38l-8.58,63.93H343.54L338.87,314l-4.68,34.38H321.38Z"/><path class="cls-9" d="M368.57,284.45h11.05l15.07,34.47V284.45h9.85v63.93h-11l-15.18-33.27v33.27h-9.79Z"/><path class="cls-9" d="M426.92,284.45h16.72l10.95,63.93H441.66l-1.43-12.27h-9.79l-1.59,12.27H416.47Zm12,40.23-3.57-28-3.74,28Z"/><path class="cls-9" d="M466.3,284.45h13.64q8.47,0,13.12,5.58t4.65,15.61a25.21,25.21,0,0,1-2.29,11.05,17.54,17.54,0,0,1-6.21,7.3,15.69,15.69,0,0,1-8.72,2.55h-2.31v21.84H466.3Zm18.76,27.13a9.51,9.51,0,0,0,1.59-5.94q0-3.92-1.57-5.86a5.48,5.48,0,0,0-4.54-1.95h-2.36v15.61a13.51,13.51,0,0,0,2.36.19A5.39,5.39,0,0,0,485.06,311.58Z"/><path class="cls-9" d="M516.9,333.7l-1.38-9.57h-2.58v24.25H500.89V284.45h16.67a14.81,14.81,0,0,1,8.33,2.37,15.61,15.61,0,0,1,5.58,6.64,23.22,23.22,0,0,1,2,9.85,27,27,0,0,1-1.78,10.46,16.21,16.21,0,0,1-5.53,6.92q.39,3.53.88,6.41a11.26,11.26,0,0,0,1.81,4.92,4.12,4.12,0,0,0,3.36,1.4,13,13,0,0,0,2.42-.37v15.14a9.25,9.25,0,0,1-5.06,1.67Q519.21,349.86,516.9,333.7ZM515,311.12q4.07,0,5.75-1.53c1.12-1,1.67-2.78,1.67-5.26,0-2.1-.45-3.63-1.37-4.59a5.79,5.79,0,0,0-4.35-1.44h-3.79v12.82Z"/><path class="cls-9" d="M545.75,345.59a28.07,28.07,0,0,1-7.15-11.85A53.54,53.54,0,0,1,536,316.51a54.36,54.36,0,0,1,2.56-17.38,27.76,27.76,0,0,1,7.15-11.85,15.25,15.25,0,0,1,21.06,0A27.79,27.79,0,0,1,574,299.09a54.19,54.19,0,0,1,2.56,17.42A53.54,53.54,0,0,1,574,333.74a27.9,27.9,0,0,1-7.17,11.85,15.09,15.09,0,0,1-21,0ZM562,328.4q2.24-4.54,2.23-12a34.49,34.49,0,0,0-1-8.78,15.66,15.66,0,0,0-2.83-6,4.94,4.94,0,0,0-8.19,0,15.37,15.37,0,0,0-2.81,6,35.48,35.48,0,0,0-1,8.78q0,7.44,2.2,12c1.47,3,3.37,4.55,5.72,4.55S560.49,331.44,562,328.4Z"/><path class="cls-9" d="M580.7,284.45h13.64q8.48,0,13.12,5.58t4.65,15.61a25.21,25.21,0,0,1-2.29,11.05,17.54,17.54,0,0,1-6.21,7.3,15.69,15.69,0,0,1-8.72,2.55h-2.31v21.84H580.7Zm18.76,27.13a9.51,9.51,0,0,0,1.59-5.94q0-3.92-1.57-5.86a5.46,5.46,0,0,0-4.53-1.95h-2.37v15.61a13.55,13.55,0,0,0,2.37.19A5.39,5.39,0,0,0,599.46,311.58Z"/><path class="cls-9" d="M615.3,284.45h26.56v14.12h-13.2v11.62h12.05V321.9H628.66v12.35h13.2v14.13H615.3Z"/><path class="cls-9" d="M662.93,333.7l-1.38-9.57H659v24.25H646.92V284.45h16.67a14.81,14.81,0,0,1,8.33,2.37,15.61,15.61,0,0,1,5.58,6.64,23.22,23.22,0,0,1,2,9.85,27,27,0,0,1-1.79,10.46,16.12,16.12,0,0,1-5.52,6.92c.25,2.35.55,4.49.88,6.41a11.14,11.14,0,0,0,1.81,4.92,4.12,4.12,0,0,0,3.36,1.4,13,13,0,0,0,2.42-.37v15.14a9.28,9.28,0,0,1-5.06,1.67Q665.23,349.86,662.93,333.7Zm-1.87-22.58q4.07,0,5.74-1.53t1.68-5.26a6.46,6.46,0,0,0-1.38-4.59,5.75,5.75,0,0,0-4.34-1.44H659v12.82Z"/><path class="cls-9" d="M689.54,298.57h-7.86V284.45h28.54v14.12h-7.86v49.81H689.54Z"/><path class="cls-9" d="M721.44,330.63l-10.89-46.18h11.5l5.33,28.71,5.23-28.71h12.1l-11.44,46.18v17.75H721.44Z"/></g></g></svg>